<?xml version="1.0" encoding="utf-8"?>
<!DOCTYPE svg PUBLIC "-//W3C//DTD SVG 1.1//EN" "http://www.w3.org/Graphics/SVG/1.1/DTD/svg11.dtd">
<svg id="banner_svg" xmlns="http://www.w3.org/2000/svg" xmlns:xlink="http://www.w3.org/1999/xlink" width="500px" height="500px" viewBox="0 0 500 500" preserveAspectRatio="xMidYMid meet" version="1.1" xml:space="preserve" >
	<style>
		.color1 { fill: #C32C48; opacity: 1; }
		.color2 { fill: #FD7D50; opacity: 1; }
		.color3 { fill: #FFB154; opacity: 1; }
		.color4 { fill: #F0E7C4; opacity: 1; }
		.color5 { fill: #51948E; opacity: 1; }
	</style>
	<g id="banner">
		<path id="bannershape" class="color2" d="M475,65c0,0-21-25-53-25s-90,25-172 25s-140-25-172-25s-53,25-53,25l25,10l-25,50c0,0,21-25,53-25s89,25,172,25s140-25,172-25s53,25,53,25l-25-50l25,-10z"/>
		<path id="pathfortext" fill="none" d="M50,90c8-4,18-7,29-7c32,0,90,25,172,25s139-25,172-25c11,0,21,3,28,7"/>
		<text text-anchor="middle">
			<textPath  xlink:href="#pathfortext" startOffset="50%">
				<tspan font-family="CenturyGothic, Helvetica, 'Trebuchet MS', Verdana, 'sans-serif' " font-size="32" class="color4">Happy Birthday!</tspan>
			</textPath>
		</text>
	</g>
</svg>

