<?xml version="1.0" encoding="utf-8"?>
<!DOCTYPE svg PUBLIC "-//W3C//DTD SVG 1.1//EN" "http://www.w3.org/Graphics/SVG/1.1/DTD/svg11.dtd">
<svg id="banner_svg" xmlns="http://www.w3.org/2000/svg" xmlns:xlink="http://www.w3.org/1999/xlink" width="500px" height="500px" viewBox="0 0 500 500" preserveAspectRatio="xMidYMin meet" version="1.1" xml:space="preserve" >
	<style>
		.color1 { fill: #C32C48; opacity: 1; }
		.color2 { fill: #FD7D50; opacity: 1; }
		.color3 { fill: #FFB154; opacity: 1; }
		.color4 { fill: #F0E7C4; opacity: 1; }
		.color5 { fill: #51948E; opacity: 1; }
		.ribbon { fill: #51948E; stroke-width: 1; stroke: #51948E; opacity: 1; }
	</style>
	<g id="banner">
		<path id="bannershape" class="color2" d="M250,125c-110,0-200-18-200-40v-60c0,22,90,40,200,40s200-18,200-40v60c0 20-88 41 -200 40z "/> 
		<path class="ribbon" d="M50 0v28q0 10 -10 20v-5q10 -10 10 -20q0 10 10 20v5q-10 -10 -10 -20q-10-6 -10 -2v2q0 6 10 0q10 -6 10 -2v2q0 6 -10 0v-28z" />
		<path class="ribbon" d="M450 0v28q0 10 -10 20v-5q10 -10 10 -20q0 10 10 20v5q-10 -10 -10 -20q-10-6 -10 -2v2q0 6 10 0q10 -6 10 -2v2q0 6 -10 0v-28z" />
		<path id="pathfortext" fill="none" d="M50,65c0,22.1 90,40 200,40s200-18,200-40"/>
		<text>
			<textPath  xlink:href="#pathfortext" startOffset="5%">
				<tspan font-family="Verdana, 'sans-serif' " font-size="32" class="color4">Happy Birthday Dad!</tspan>
			</textPath>
		</text>
	</g>
</svg>
