<?xml version="1.0" encoding="utf-8"?>
<!DOCTYPE svg PUBLIC "-//W3C//DTD SVG 1.1//EN" "http://www.w3.org/Graphics/SVG/1.1/DTD/svg11.dtd">
<svg id="svgcake" xmlns="http://www.w3.org/2000/svg" xmlns:xlink="http://www.w3.org/1999/xlink" width="500px" height="500px" viewBox="0 0 500 500" preserveAspectRatio="xMidYMid meet" version="1.1" xml:space="preserve">
    <style>
        .outer_flame { fill: #ffff38; stroke: white; stroke-width: 1; opacity: 0.8; }
        .inner_flame { fill: #6f5a8c; stroke: #FFB154; stroke-width: 1; opacity: 0.5; }
        .smoke { fill: none; stroke: #A6A8AB; stroke-dasharray: 110 110; stroke-dashoffset: 110; }
    </style>
    <defs>
        <g id="def_candle" >
            <ellipse id="candleBottom" cx="250" cy="195" rx="5" ry="2" fill="#ea6743"/>
            <rect id="candleSide" x="245" y="115" width="10" height="80" fill="#ea6743"/>
            <ellipse id="candleTop" cx="250" cy="115" rx="5" ry="1.5" fill="#c32c48" />
            <path id="wick" d="M250 115v-5" fill="none" stroke="black" />   
        </g>
        <g id="def_flame">
            <rect x="0" y="0" rx="4" ry="24"  width="8" height="24"  class="outer_flame" />
            <rect x="2" y="16" rx="2" ry="4" width="4" height="8"  class="inner_flame" />
        </g>
    </defs>
    <g id="plate">
        <ellipse id="platebottom" cx="250" cy="380" rx="225" ry="65" fill="#315955" />
        <rect id="plateside" x="25" y="355" width="450" height="25" fill="#315955"  />
        <ellipse id="platetop" cx="250" cy="355" rx="225" ry="65" fill="#51948E" />
    </g>
    <g id="cake" >
        <ellipse id="frostingBottom" cx="250" cy="350" rx="158" ry="40" fill="#fcf8e8" stroke="#FFB154" stroke-width="16"/>
        <rect id="cakeSide" x="100" y="200" width="300" height="150" fill="#fcf8e8" />
        <ellipse id="cakeTop" cx="250" cy="200" rx="150" ry="30" fill="#fcf8e8" stroke-width="22" stroke="#FFB154"/>
    </g>
    <use xlink:href="#def_candle" id="candle1" />
    <svg x="49.2%" y="17%">
        <use xlink:href="#def_flame" id="flame1" class="flame_group" />
    </svg>
    <path id="smoke1" d="M250,108c0-2-16-12-7-21c3-3,11-8,11-14c0-11-9-9-10-17c1-5,5-6,5-11c1-6-5-15-2-25" class="smoke"/>
    <use xlink:href="#def_candle" id="candle2" transform="translate(25, 10)" />
    <svg x="54.2%" y="19%">
        <use xlink:href="#def_flame" id="flame2" class="flame_group" />
    </svg>
    <path id="smoke2" d="M275,118c0-2-16-12-7-21c3-3,11-8,11-14c0-11-9-9-10-17c1-5,5-6,5-11c1-6-5-15-2-25" class="smoke" />
    <use xlink:href="#def_candle" id="candle3" transform="translate(-25, 10)" />
    <svg x="44.2%" y="19%">
        <use xlink:href="#def_flame" id="flame3" class="flame_group" />
    </svg>
    <path id="smoke3" d="M225,118c0-2-16-12-7-21c3-3,11-8,11-14c0-11-9-9-10-17c1-5,5-6,5-11c1-6-5-15-2-25" class="smoke" />
    <use xlink:href="#def_candle" id="candle4" transform="translate(50, 5)" />
    <svg x="59.2%" y="18%">
        <use xlink:href="#def_flame" id="flame4" class="flame_group" />
    </svg>
    <path id="smoke4" d="M300,113c0-2-16-12-7-21c3-3,11-8,11-14c0-11-9-9-10-17c1-5,5-6,5-11c1-6-5-15-2-25" class="smoke" />
    <use xlink:href="#def_candle" id="candle5" transform="translate(-50, 5)" />
    <svg x="39.2%" y="18%">
        <use xlink:href="#def_flame" id="flame5" class="flame_group" />
    </svg>
    <path id="smoke5" d="M200,113c0-2-16-12-7-21c3-3,11-8,11-14c0-11-9-9-10-17c1-5,5-6,5-11c1-6-5-15-2-25" class="smoke" />
</svg>