<?xml version="1.0" encoding="utf-8"?>
<!DOCTYPE svg PUBLIC "-//W3C//DTD SVG 1.1//EN" "http://www.w3.org/Graphics/SVG/1.1/DTD/svg11.dtd">
<svg id="svgcake" xmlns="http://www.w3.org/2000/svg" xmlns:xlink="http://www.w3.org/1999/xlink" width="100%" height="100%" viewBox="0 0 500 500" preserveAspectRatio="xMidYMid meet" version="1.1" xml:space="preserve">
    <g id="plate">
        <ellipse id="platebottom" cx="250" cy="380" rx="225" ry="65" fill="#315955" />
        <rect id="plateside" x="25" y="355" width="450" height="25" fill="#315955"  />
        <ellipse id="platetop" cx="250" cy="355" rx="225" ry="65" fill="#51948E" />
    </g>
    <g id="cake" >
        <ellipse id="frostingBottom" cx="250" cy="350" rx="158" ry="40" fill="#fcf8e8" stroke="#FFB154" stroke-width="16"/>
        <rect id="cakeSide" x="100" y="200" width="300" height="150" fill="#fcf8e8" />
        <ellipse id="cakeTop" cx="250" cy="200" rx="150" ry="30" fill="#fcf8e8" stroke-width="22" stroke="#FFB154"/>
    </g>
    <g id="candlesgroup">
        <g id="candle1" >
            <ellipse id="candleBottom" cx="250" cy="195" rx="5" ry="2" fill="#ea6743"/>
            <rect id="candleSide" x="245" y="115" width="10" height="80" fill="#ea6743"/>
            <ellipse id="candleTop" cx="250" cy="115" rx="5" ry="1.5" fill="#c32c48" />
            <path id="wick" d="M250 115v-5" fill="none" stroke="black" />
            <g id="flame" >
                <ellipse id="mainflame" cx="250" cy="97" rx="4" ry="12" fill="#ffff38" stroke="white" opacity="0.8"/>
                <ellipse id="flame_inset" cx="250" cy="106" rx="2" ry="4" fill="#6f5a8c"  stroke="#FFB154" opacity="0.5"/>
            </g>
            <path fill="none" stroke="#A6A8AB" id="smoke" d="M250,108c0-2-16-12-7-21c3-3,11-8,11-14c0-11-9-9-10-17c1-5,5-6,5-11c1-6-5-15-2-25" style="stroke-dasharray: 110; stroke-dashoffset: 110; "/>
        </g>
        <use xlink:href="#candle1" id="candle2" transform="translate(25, 10)" />
        <use xlink:href="#candle1" id="candle3" transform="translate(-25, 10)" />
        <use xlink:href="#candle1" id="candle4" transform="translate(50, 5)" />
        <use xlink:href="#candle1" id="candle5" transform="translate(-50, 5)" />
    </g>
</svg>